<?xml version="1.0" standalone="no"?>
<!DOCTYPE svg PUBLIC "-//W3C//DTD SVG 20010904//EN"
 "http://www.w3.org/TR/2001/REC-SVG-20010904/DTD/svg10.dtd">
<svg version="1.0" xmlns="http://www.w3.org/2000/svg"
 width="700.000000pt" height="700.000000pt" viewBox="0 0 700.000000 700.000000"
 preserveAspectRatio="xMidYMid meet">

<g transform="translate(0.000000,700.000000) scale(0.100000,-0.100000)"
fill="#000000" stroke="none">
<path d="M2120 5843 c-177 -140 -401 -377 -540 -573 -263 -371 -429 -787 -497
-1245 -22 -150 -25 -598 -5 -745 39 -276 98 -494 203 -745 104 -248 228 -456
400 -670 305 -380 687 -665 1140 -851 200 -82 333 -122 547 -163 l101 -20 118
24 c907 181 1663 782 2042 1622 110 244 180 479 223 753 32 205 32 586 -1 800
-78 519 -278 980 -595 1374 -160 199 -501 518 -539 503 -7 -3 -138 -220 -292
-483 -153 -264 -370 -636 -482 -827 -112 -192 -203 -356 -203 -366 0 -9 36
-79 81 -156 213 -368 251 -437 246 -448 -6 -15 -279 -492 -466 -814 -69 -119
-128 -210 -135 -207 -6 2 -63 95 -128 207 -64 111 -179 310 -255 442 -77 132
-157 272 -178 311 l-39 71 53 94 c29 52 105 183 168 292 75 128 113 204 110
216 -5 19 -88 164 -477 831 -114 195 -271 463 -347 595 -77 132 -147 241 -154
243 -8 1 -52 -28 -99 -65z m146 -450 c343 -590 357 -614 347 -624 -4 -4 -55
-10 -113 -11 l-105 -3 -33 -55 c-18 -30 -37 -62 -42 -70 -13 -23 -32 0 -103
123 -36 62 -119 206 -186 321 -67 116 -121 216 -121 224 0 8 9 26 20 40 37 49
214 222 226 222 7 0 56 -75 110 -167z m2648 46 c64 -67 116 -128 116 -136 0
-9 -51 -104 -113 -212 -63 -108 -149 -258 -193 -333 -43 -76 -84 -138 -91
-138 -6 0 -29 30 -50 68 l-39 67 -104 3 c-58 1 -109 7 -114 12 -5 5 48 108
132 252 345 598 308 538 326 538 8 0 66 -54 130 -121z m367 -477 c59 -100 141
-260 170 -334 44 -112 88 -249 83 -261 -2 -7 -135 -75 -294 -151 -234 -112
-293 -136 -304 -127 -8 7 -49 73 -91 146 l-77 134 123 213 c68 117 158 272
199 345 100 173 99 171 123 142 10 -13 41 -61 68 -107z m-3414 -67 c243 -421
293 -512 293 -528 0 -24 -152 -287 -166 -287 -10 0 -59 23 -446 208 -92 44
-148 76 -148 85 0 23 65 206 111 309 82 188 210 401 237 396 8 -2 61 -84 119
-183z m908 -386 c21 -23 155 -261 155 -276 0 -18 -6 -30 -107 -201 -47 -79
-90 -141 -96 -139 -17 5 -276 448 -277 471 0 19 51 117 78 149 14 15 29 17
125 14 75 -3 113 -9 122 -18z m1625 11 c19 -10 90 -129 90 -152 0 -15 -244
-445 -266 -468 -12 -13 -16 -13 -28 0 -25 26 -186 314 -186 332 0 26 152 287
170 291 35 9 203 6 220 -3z m-2685 -570 c196 -93 363 -170 370 -170 7 0 48 60
90 133 43 72 87 147 97 165 11 17 26 32 33 32 8 0 33 -33 56 -72 23 -40 74
-129 114 -198 40 -69 166 -287 281 -485 114 -198 236 -409 271 -468 34 -60 63
-117 63 -128 0 -18 -11 -19 -274 -19 l-275 0 -19 24 c-10 14 -109 180 -218
370 -109 190 -204 348 -210 350 -6 2 -67 -19 -135 -48 -68 -29 -233 -99 -367
-155 -148 -63 -247 -100 -253 -94 -14 14 -37 191 -44 338 -11 218 24 595 55
595 5 0 169 -76 365 -170z m3889 153 c42 -143 54 -598 22 -798 -10 -60 -22
-114 -26 -119 -5 -5 -44 6 -92 27 -578 246 -661 278 -673 265 -6 -7 -52 -83
-100 -168 -187 -328 -309 -536 -323 -552 -14 -16 -40 -18 -287 -18 -218 0
-274 3 -278 13 -3 8 57 121 133 253 76 131 250 432 387 669 141 245 255 431
264 433 11 2 43 -45 110 -162 55 -97 100 -165 109 -166 8 0 175 76 370 169
195 94 360 170 367 170 6 1 14 -7 17 -16z m-3466 -1142 c72 -126 132 -237 132
-247 0 -10 -52 -108 -116 -218 -64 -111 -152 -262 -195 -336 -43 -74 -84 -136
-91 -138 -25 -5 -177 213 -276 398 -87 161 -211 483 -199 514 3 6 38 26 78 43
365 158 497 212 514 212 16 1 49 -49 153 -228z m3114 108 c155 -67 286 -126
289 -132 13 -20 -58 -229 -128 -379 -96 -207 -305 -537 -339 -538 -11 0 -56
72 -232 375 -128 221 -172 303 -172 321 0 9 59 120 132 246 91 158 137 228
149 228 9 0 145 -55 301 -121z m-2074 -446 c11 -16 50 -81 87 -146 61 -107 66
-121 56 -144 -12 -27 -159 -284 -378 -663 -184 -318 -202 -348 -212 -355 -17
-10 -247 124 -257 150 -6 15 34 92 161 310 60 102 460 793 502 868 8 14 22 7
41 -20z m690 -95 c39 -68 145 -253 237 -413 92 -159 212 -367 266 -461 55 -94
99 -178 99 -185 -1 -14 -58 -52 -184 -121 -51 -28 -72 -35 -82 -27 -7 6 -52
79 -100 162 -48 84 -143 249 -212 367 -279 483 -286 498 -273 528 29 65 156
272 167 272 6 0 43 -55 82 -122z m-1093 -28 c4 -6 -64 -133 -151 -283 -86
-149 -199 -344 -250 -432 -51 -88 -99 -161 -106 -163 -8 -1 -32 11 -54 28 -63
51 -174 161 -174 173 0 11 79 153 237 422 39 66 89 153 112 193 l42 72 169 0
c104 0 171 -4 175 -10z m1731 2 c6 -4 29 -38 51 -77 22 -38 108 -188 191 -331
84 -144 152 -265 152 -270 0 -21 -202 -204 -225 -204 -21 0 -521 862 -510 880
7 12 323 14 341 2z m-863 -682 c88 -151 199 -344 248 -428 49 -84 89 -160 89
-167 0 -8 -8 -18 -17 -24 -63 -33 -342 -109 -463 -126 -53 -7 -243 30 -390 77
-116 37 -150 54 -150 74 0 15 44 94 305 544 59 102 126 218 148 258 27 45 48
71 57 69 8 -1 86 -126 173 -277z"/>
</g>
</svg>
